<svg xmlns="http://www.w3.org/2000/svg" viewBox="0 0 16 16" width="16" height="16">
  <!-- Flame above the F -->
  <path d="M8.5 1 C8.5 1 10 2.5 9.5 4 C9.2 4.8 8.5 5 8.5 5 C8.5 5 9 4.2 8.5 3.5 C8.5 3.5 8 4.5 7.2 5 C6.8 5.3 7 4 7.5 3 C7 3.5 6.5 4.5 6.8 5.2 C5.8 4.5 6 2.8 6.5 2 C7 1.2 8.5 1 8.5 1Z" fill="#FF4500"/>
  <!-- Letter F -->
  <rect x="4" y="6" width="2" height="9" fill="#111111"/>
  <rect x="4" y="6" width="7" height="2" fill="#111111"/>
  <rect x="4" y="10" width="5.5" height="2" fill="#111111"/>
</svg>
